HIERARCHY
ROOT Hips
{
	OFFSET 0.000000 89.005402 0.000000
	CHANNELS 6 Xposition Yposition Zposition Xrotation Yrotation Zrotation
	JOINT Spine
	{
		OFFSET 0.116900 10.681000 0.373400
		CHANNELS 3 Xrotation Yrotation Zrotation
		JOINT Spine1
		{
			OFFSET 0.000000 13.840401 0.053500
			CHANNELS 3 Xrotation Yrotation Zrotation
			JOINT Spine2
			{
				OFFSET 0.000000 14.712700 -0.366200
				CHANNELS 3 Xrotation Yrotation Zrotation
				JOINT Neck
				{
					OFFSET 0.000000 35.415497 -3.314200
					CHANNELS 3 Xrotation Yrotation Zrotation
					JOINT Head
					{
						OFFSET 0.000000 16.899200 1.218300
						CHANNELS 3 Xrotation Yrotation Zrotation
						JOINT HeadTop_End
						{
							OFFSET 0.000000 22.206207 2.192500
							CHANNELS 3 Xrotation Yrotation Zrotation
							End Site
							{
								OFFSET 0.000000 22.314178 0.000000
							}
						}
					}
				}
				JOINT LeftShoulder
				{
					OFFSET 12.896400 26.716293 -4.548400
					CHANNELS 3 Xrotation Yrotation Zrotation
					JOINT LeftArm
					{
						OFFSET 19.027000 -4.857010 -1.718400
						CHANNELS 3 Xrotation Yrotation Zrotation
						JOINT LeftForeArm
						{
							OFFSET 24.179897 0.000000 0.000000
							CHANNELS 3 Xrotation Yrotation Zrotation
							JOINT LeftHand
							{
								OFFSET 27.156403 0.000000 0.000000
								CHANNELS 3 Xrotation Yrotation Zrotation
								JOINT LeftHandIndex1
								{
									OFFSET 16.441200 0.000000 0.000000
									CHANNELS 3 Xrotation Yrotation Zrotation
									JOINT LeftHandIndex2
									{
										OFFSET 4.821899 0.000000 0.000000
										CHANNELS 3 Xrotation Yrotation Zrotation
										JOINT LeftHandIndex3
										{
											OFFSET 6.386497 0.000000 0.000000
											CHANNELS 3 Xrotation Yrotation Zrotation
											JOINT LeftHandIndex4
											{
												OFFSET 5.188988 0.000000 0.000000
												CHANNELS 3 Xrotation Yrotation Zrotation
												End Site
												{
													OFFSET -0.178703 5.185913 0.000177
												}
											}
										}
									}
								}
								JOINT LeftHandThumb1
								{
									OFFSET 6.534897 -5.032593 5.900300
									CHANNELS 3 Xrotation Yrotation Zrotation
									JOINT LeftHandThumb2
									{
										OFFSET 3.818176 -2.204422 2.204423
										CHANNELS 3 Xrotation Yrotation Zrotation
										JOINT LeftHandThumb3
										{
											OFFSET 3.252098 -1.877594 1.877601
											CHANNELS 3 Xrotation Yrotation Zrotation
											JOINT LeftHandThumb4
											{
												OFFSET 5.251778 -3.032120 3.032117
												CHANNELS 3 Xrotation Yrotation Zrotation
												End Site
												{
													OFFSET 0.000023 6.780014 0.000000
												}
											}
										}
									}
								}
							}
						}
					}
				}
				JOINT RightShoulder
				{
					OFFSET -12.896300 26.716293 -4.548400
					CHANNELS 3 Xrotation Yrotation Zrotation
					JOINT RightArm
					{
						OFFSET -19.027000 -4.857010 -1.718400
						CHANNELS 3 Xrotation Yrotation Zrotation
						JOINT RightForeArm
						{
							OFFSET -24.179897 0.000000 0.000000
							CHANNELS 3 Xrotation Yrotation Zrotation
							JOINT RightHand
							{
								OFFSET -27.156403 0.000000 0.000000
								CHANNELS 3 Xrotation Yrotation Zrotation
								JOINT RightHandThumb1
								{
									OFFSET -6.591202 -4.852203 5.988100
									CHANNELS 3 Xrotation Yrotation Zrotation
									JOINT RightHandThumb2
									{
										OFFSET -3.818176 -2.204422 2.204423
										CHANNELS 3 Xrotation Yrotation Zrotation
										JOINT RightHandThumb3
										{
											OFFSET -3.252098 -1.877594 1.877601
											CHANNELS 3 Xrotation Yrotation Zrotation
											JOINT RightHandThumb4
											{
												OFFSET -5.251778 -3.032120 3.032117
												CHANNELS 3 Xrotation Yrotation Zrotation
												End Site
												{
													OFFSET -0.000023 6.780014 0.000000
												}
											}
										}
									}
								}
								JOINT RightHandIndex1
								{
									OFFSET -16.029404 0.000000 0.000000
									CHANNELS 3 Xrotation Yrotation Zrotation
									JOINT RightHandIndex2
									{
										OFFSET -5.213303 0.000000 0.000000
										CHANNELS 3 Xrotation Yrotation Zrotation
										JOINT RightHandIndex3
										{
											OFFSET -6.386528 0.000000 0.000000
											CHANNELS 3 Xrotation Yrotation Zrotation
											JOINT RightHandIndex4
											{
												OFFSET -5.189026 0.000000 0.000000
												CHANNELS 3 Xrotation Yrotation Zrotation
												End Site
												{
													OFFSET 0.236702 5.183624 0.001972
												}
											}
										}
									}
								}
							}
						}
					}
				}
			}
		}
	}
	JOINT LeftUpLeg
	{
		OFFSET 14.073000 -7.904099 -1.463000
		CHANNELS 3 Xrotation Yrotation Zrotation
		JOINT LeftLeg
		{
			OFFSET -0.109806 -34.073280 4.093200
			CHANNELS 3 Xrotation Yrotation Zrotation
			JOINT LeftFoot
			{
				OFFSET 0.109806 -29.899420 -6.319000
				CHANNELS 3 Xrotation Yrotation Zrotation
				JOINT LeftToeBase
				{
					OFFSET 1.551100 -14.988700 20.535801
					CHANNELS 3 Xrotation Yrotation Zrotation
					JOINT LeftToe_End
					{
						OFFSET 0.221200 0.570800 13.248301
						CHANNELS 3 Xrotation Yrotation Zrotation
						End Site
						{
							OFFSET 0.000000 13.262435 0.000000
						}
					}
				}
			}
		}
	}
	JOINT RightUpLeg
	{
		OFFSET -13.839300 -7.904099 -1.463000
		CHANNELS 3 Xrotation Yrotation Zrotation
		JOINT RightLeg
		{
			OFFSET 0.109694 -34.073219 4.093300
			CHANNELS 3 Xrotation Yrotation Zrotation
			JOINT RightFoot
			{
				OFFSET -0.109694 -29.899384 -6.319200
				CHANNELS 3 Xrotation Yrotation Zrotation
				JOINT RightToeBase
				{
					OFFSET -1.551100 -14.988700 20.535801
					CHANNELS 3 Xrotation Yrotation Zrotation
					JOINT RightToe_End
					{
						OFFSET -0.221200 0.570900 13.248299
						CHANNELS 3 Xrotation Yrotation Zrotation
						End Site
						{
							OFFSET 0.000000 13.262440 0.000000
						}
					}
				}
			}
		}
	}
}
MOTION
Frames: 4
Frame Time: 0.033333
0.534715 70.444603 1.629892 18.759683 -3.567528 3.028765 4.076940 3.696635 0.470456 3.075901 2.435569 0.677058 3.001765 2.471371 0.763563 -7.065483 -0.253433 1.349279 -10.142297 2.004126 -3.325498 0.000001 0.000000 -0.000000 0.439568 -10.134382 -11.707486 18.294315 -14.864245 -50.340130 0.000043 -73.762532 0.000055 -17.489524 -18.492051 -1.123077 -4.701559 2.558697 -86.818739 2.642981 4.895728 -56.704367 1.883123 4.303507 -47.250702 -0.000002 -0.000000 -0.000002 -4.587128 -3.491966 15.805425 11.739369 22.262636 3.950483 -13.957957 -10.339294 6.819101 0.000000 -0.000002 -0.000000 0.581172 6.269332 7.896109 16.771067 21.243461 39.807469 -0.000048 80.941396 0.000040 -11.668561 10.177198 -5.237668 -1.884087 1.157809 -6.033997 10.652932 -21.788688 -3.945938 -3.557805 -9.764491 -17.037651 0.000001 -0.000001 0.000001 0.996379 -3.039481 54.041444 1.587058 -3.503624 48.728195 1.504526 -3.429569 47.362994 0.000000 0.000001 0.000002 -60.161119 5.366824 0.373184 93.020128 -4.474328 1.541445 6.645564 8.449950 3.787122 -57.177003 8.294367 -5.153921 0.000000 0.000000 -0.000000 -35.805132 -5.079538 3.886588 65.716795 -0.962224 1.955574 -48.414123 4.458560 -7.508097 -0.000046 0.000000 0.000002 0.000000 0.000000 -0.000000 
0.246576 73.418167 10.124014 18.032995 -2.928241 3.326529 3.827130 5.554248 -0.057412 2.999581 3.318232 -0.018259 2.923635 3.373872 0.083818 -6.236783 -0.732772 1.148707 -8.744859 -0.996314 -1.831868 0.000001 0.000000 0.000000 0.539692 -8.264491 -10.900319 22.796315 -15.016671 -47.084872 0.000094 -79.463029 0.000105 -11.719932 -16.846525 -5.400898 -5.019780 3.127436 -90.808007 2.792528 4.990386 -58.439939 1.951769 4.365754 -48.158680 0.000000 -0.000000 -0.000004 -5.075509 -3.872705 17.106981 11.884854 22.506679 4.000840 -14.927930 -11.653493 5.700539 -0.000000 0.000000 -0.000000 0.562658 6.111300 7.997753 18.990567 20.914538 39.576749 -0.061425 89.741364 0.061234 -14.515142 10.610488 -9.550684 -2.530060 1.147706 -6.616594 10.513778 -21.544196 -3.890222 -2.770821 -11.331850 -17.664997 -0.000001 -0.000001 0.000002 1.037732 -2.947257 51.474389 1.529388 -3.452272 47.777566 1.496978 -3.422619 47.236902 -0.000001 -0.000000 0.000000 -63.653852 4.995011 0.249272 85.521632 -4.699294 1.468443 1.395632 7.566887 2.661844 -39.660651 3.993149 -4.048568 -0.000000 0.000000 0.000000 -20.071839 -6.220804 2.744479 50.573470 1.667974 1.546179 -48.666512 4.683619 -7.468956 0.644846 -0.000003 -0.000002 -0.000000 -0.000000 -0.000000 
-0.156157 75.855431 18.426081 17.034041 -1.510686 5.151747 4.191921 6.299120 -2.292851 3.172027 3.650302 -0.493666 3.092912 3.727130 -0.372924 -5.550206 -1.143900 0.869002 -7.188882 -3.672213 -0.793639 -0.000001 -0.000001 -0.000000 0.596657 -7.178823 -10.362580 25.199194 -14.711852 -44.471304 -0.000198 -83.861069 -0.000194 -10.179749 -15.776781 -6.025951 -5.130025 3.348425 -92.274729 2.848314 5.024088 -59.079019 1.977269 4.388409 -48.492960 0.000001 0.000001 -0.000003 -5.253695 -4.013726 17.585637 11.938525 22.596557 4.019032 -15.289180 -12.130871 5.278404 -0.000002 0.000002 -0.000001 0.669005 5.514363 8.218607 19.465090 20.656160 40.023399 -0.000119 97.088243 0.000103 -16.769731 9.503902 -9.825677 -2.768109 1.146554 -6.830837 10.462656 -21.454258 -3.869425 -2.480828 -11.912312 -17.886379 0.000001 -0.000002 0.000001 1.053737 -2.913864 50.529371 1.508383 -3.433105 47.427638 1.494219 -3.420042 47.190504 0.000000 -0.000000 -0.000000 -61.838682 5.691042 -2.901686 73.273846 -4.188921 1.443171 -0.882196 9.305048 2.027904 -24.823419 2.333657 -3.873939 -0.000000 0.000000 -0.000000 -8.396330 -8.900615 0.318468 39.591239 4.177537 0.911890 -43.936667 4.789486 -7.593570 -14.066700 0.000002 0.000002 -0.000000 0.000000 -0.000000 
-0.737764 78.083481 27.062508 15.784598 0.598098 7.759583 4.927212 6.517154 -5.746712 3.485230 3.557353 -0.982646 3.417304 3.645725 -0.853472 -4.549504 -1.469814 0.153704 -5.756086 -6.781633 0.695432 -0.000001 -0.000000 -0.000000 0.686046 -5.859136 -9.464316 28.113851 -13.237410 -41.328078 0.006842 -90.920644 0.006788 -12.056273 -13.039232 -7.967168 -5.082213 3.250847 -91.631783 2.823811 5.009396 -58.798824 1.966080 4.378478 -48.346408 0.000000 0.000001 -0.000002 -5.175670 -3.951830 17.375824 11.914969 22.557145 4.011068 -15.130481 -11.921982 5.464168 -0.000002 -0.000000 0.000000 0.853400 8.320594 6.412385 18.214595 17.460206 44.890431 0.000004 106.784735 -0.000016 -17.503617 5.641676 -6.905145 -2.663752 1.146887 -6.736908 10.485079 -21.493683 -3.878551 -2.607962 -11.657611 -17.789902 0.000002 0.000000 -0.000001 1.046543 -2.928609 50.943676 1.517582 -3.441515 47.581038 1.495414 -3.421177 47.210865 0.000001 0.000000 0.000001 -59.309497 4.349634 -7.367088 51.324275 -2.681761 1.548736 5.530066 16.431804 -6.152417 -8.723639 -0.466856 1.869063 -0.000000 0.000001 -0.000000 -3.326428 -13.120927 -2.908726 39.224141 6.074025 -0.139288 -36.434114 2.235766 -7.474505 -41.117483 0.000002 0.000002 0.000001 -0.000000 -0.000000 
